<svg height="46" viewBox="0 0 95 46" width="95" xmlns="http://www.w3.org/2000/svg"><g fill="none" fill-rule="evenodd" transform="translate(0 -1)"><path d="m16.4132127 3.82086892-14.36378667 17.67850658c-1.19405866 1.4696107-1.19405866 3.5751304 0 5.044741l14.32844927 17.6350146c1.3930668 1.7145437 3.9122828 1.9751522 5.6268265.5820855.2135307-.1734937.4085919-.3685549.5820855-.5820855l14.3637867-17.6785066c1.1940586-1.4696107 1.1940586-3.5751304 0-5.044741l-14.3284493-17.63501458c-1.3930668-1.7145437-3.9122828-1.97515226-5.6268265-.5820855-.2135307.17349366-.4085919.36855485-.5820855.5820855z" stroke="#e01f26" stroke-width="1.5"/><path d="m34.4132127 3.82086892-14.3637867 17.67850658c-1.1940586 1.4696107-1.1940586 3.5751304 0 5.044741l14.3284493 17.6350146c1.3930668 1.7145437 3.9122828 1.9751522 5.6268265.5820855.2135307-.1734937.4085919-.3685549.5820855-.5820855l14.3637867-17.6785066c1.1940586-1.4696107 1.1940586-3.5751304 0-5.044741l-14.3284493-17.63501458c-1.3930668-1.7145437-3.9122828-1.97515226-5.6268265-.5820855-.2135307.17349366-.4085919.36855485-.5820855.5820855z" fill="#e01f26"/><path d="m54.4132127 3.82086892-14.3637867 17.67850658c-1.1940586 1.4696107-1.1940586 3.5751304 0 5.044741l14.3284493 17.6350146c1.3930668 1.7145437 3.9122828 1.9751522 5.6268265.5820855.2135307-.1734937.4085919-.3685549.5820855-.5820855l14.3637867-17.6785066c1.1940586-1.4696107 1.1940586-3.5751304 0-5.044741l-14.3284493-17.63501458c-1.3930668-1.7145437-3.9122828-1.97515226-5.6268265-.5820855-.2135307.17349366-.4085919.36855485-.5820855.5820855z" fill="#fff"/><path d="m72.4132127 3.82086892-14.3637867 17.67850658c-1.1940586 1.4696107-1.1940586 3.5751304 0 5.044741l14.3284493 17.6350146c1.3930668 1.7145437 3.9122828 1.9751522 5.6268265.5820855.2135307-.1734937.4085919-.3685549.5820855-.5820855l14.3637867-17.6785066c1.1940586-1.4696107 1.1940586-3.5751304 0-5.044741l-14.3284493-17.63501458c-1.3930668-1.7145437-3.9122828-1.97515226-5.6268265-.5820855-.2135307.17349366-.4085919.36855485-.5820855.5820855z" stroke="#e01f26" stroke-width="1.5"/></g></svg>